# xmcd CD database file
#
# Track frame offsets:
#	150
#	15200
#	32846
#	54037
#	73692
#	89368
#	112529
#	132308
#	150690
#	166195
#	194609
#	204077
#
# Disc length: 2900 seconds
#
# Revision: 0
# Processed by: cddbd v1.4PL0 Copyright (c) Steve Scherf et al.
# Submitted via: Feurio! 1.63 - http://www.feurio.com
#
DISCID=890b520c
DTITLE=Fuzzy Love - Pagan Schmalz and Other Sacrifices
DYEAR=1900
DGENRE=schmalz
TTITLE0=Lady Marmalade
TTITLE1=Mandy
TTITLE2=Smells Like Teen Spirit
TTITLE3=Spooky Magic Woman
TTITLE4=California Girls
TTITLE5=Sweet Caroline
TTITLE6=I Am Man
TTITLE7=Raindrops Keep Fallin' On My Head
TTITLE8=Black Hole Sun
TTITLE9=Spill the Wine/Evil Ways
TTITLE10=Ya Ya
TTITLE11=I Like Beer
EXTD=Hausband des Smalzwalds (Club in Berlin)
EXTT0=
EXTT1=
EXTT2=
EXTT3=
EXTT4=
EXTT5=
EXTT6=
EXTT7=
EXTT8=
EXTT9=
EXTT10=
EXTT11=
PLAYORDER=
